<svg id="visual" viewBox="0 0 960 540" width="960" height="540" xmlns="http://www.w3.org/2000/svg" xmlns:xlink="http://www.w3.org/1999/xlink" version="1.1"><rect x="0" y="0" width="960" height="540" fill="#0b1b35"></rect><path d="M0 385L13.3 390.5C26.7 396 53.3 407 80 403.5C106.7 400 133.3 382 160 378.5C186.7 375 213.3 386 240 389.7C266.7 393.3 293.3 389.7 320 385.5C346.7 381.3 373.3 376.7 400 377.5C426.7 378.3 453.3 384.7 480 387.7C506.7 390.7 533.3 390.3 560 393C586.7 395.7 613.3 401.3 640 404.5C666.7 407.7 693.3 408.3 720 410.3C746.7 412.3 773.3 415.7 800 410.7C826.7 405.7 853.3 392.3 880 388.8C906.7 385.3 933.3 391.7 946.7 394.8L960 398L960 541L946.7 541C933.3 541 906.7 541 880 541C853.3 541 826.7 541 800 541C773.3 541 746.7 541 720 541C693.3 541 666.7 541 640 541C613.3 541 586.7 541 560 541C533.3 541 506.7 541 480 541C453.3 541 426.7 541 400 541C373.3 541 346.7 541 320 541C293.3 541 266.7 541 240 541C213.3 541 186.7 541 160 541C133.3 541 106.7 541 80 541C53.3 541 26.7 541 13.3 541L0 541Z" fill="#112051"></path><path d="M0 416L13.3 418.8C26.7 421.7 53.3 427.3 80 424C106.7 420.7 133.3 408.3 160 401.5C186.7 394.7 213.3 393.3 240 396.8C266.7 400.3 293.3 408.7 320 410.7C346.7 412.7 373.3 408.3 400 408.8C426.7 409.3 453.3 414.7 480 412C506.7 409.3 533.3 398.7 560 391.7C586.7 384.7 613.3 381.3 640 387.2C666.7 393 693.3 408 720 412.3C746.7 416.7 773.3 410.3 800 406.5C826.7 402.7 853.3 401.3 880 397.7C906.7 394 933.3 388 946.7 385L960 382L960 541L946.7 541C933.3 541 906.7 541 880 541C853.3 541 826.7 541 800 541C773.3 541 746.7 541 720 541C693.3 541 666.7 541 640 541C613.3 541 586.7 541 560 541C533.3 541 506.7 541 480 541C453.3 541 426.7 541 400 541C373.3 541 346.7 541 320 541C293.3 541 266.7 541 240 541C213.3 541 186.7 541 160 541C133.3 541 106.7 541 80 541C53.3 541 26.7 541 13.3 541L0 541Z" fill="#06315d"></path><path d="M0 436L13.3 434.8C26.7 433.7 53.3 431.3 80 427.5C106.7 423.7 133.3 418.3 160 418.3C186.7 418.3 213.3 423.7 240 426.2C266.7 428.7 293.3 428.3 320 423.8C346.7 419.3 373.3 410.7 400 414.2C426.7 417.7 453.3 433.3 480 439.8C506.7 446.3 533.3 443.7 560 438.7C586.7 433.7 613.3 426.3 640 422.7C666.7 419 693.3 419 720 419.7C746.7 420.3 773.3 421.7 800 424.3C826.7 427 853.3 431 880 429.8C906.7 428.7 933.3 422.3 946.7 419.2L960 416L960 541L946.7 541C933.3 541 906.7 541 880 541C853.3 541 826.7 541 800 541C773.3 541 746.7 541 720 541C693.3 541 666.7 541 640 541C613.3 541 586.7 541 560 541C533.3 541 506.7 541 480 541C453.3 541 426.7 541 400 541C373.3 541 346.7 541 320 541C293.3 541 266.7 541 240 541C213.3 541 186.7 541 160 541C133.3 541 106.7 541 80 541C53.3 541 26.7 541 13.3 541L0 541Z" fill="#084065"></path><path d="M0 449L13.3 447C26.7 445 53.3 441 80 439.7C106.7 438.3 133.3 439.7 160 438.7C186.7 437.7 213.3 434.3 240 436.8C266.7 439.3 293.3 447.7 320 449.8C346.7 452 373.3 448 400 445.3C426.7 442.7 453.3 441.3 480 438.2C506.7 435 533.3 430 560 430.8C586.7 431.7 613.3 438.3 640 439.7C666.7 441 693.3 437 720 433.3C746.7 429.7 773.3 426.3 800 427.7C826.7 429 853.3 435 880 439.3C906.7 443.7 933.3 446.3 946.7 447.7L960 449L960 541L946.7 541C933.3 541 906.7 541 880 541C853.3 541 826.7 541 800 541C773.3 541 746.7 541 720 541C693.3 541 666.7 541 640 541C613.3 541 586.7 541 560 541C533.3 541 506.7 541 480 541C453.3 541 426.7 541 400 541C373.3 541 346.7 541 320 541C293.3 541 266.7 541 240 541C213.3 541 186.7 541 160 541C133.3 541 106.7 541 80 541C53.3 541 26.7 541 13.3 541L0 541Z" fill="#1a506c"></path><path d="M0 470L13.3 469.5C26.7 469 53.3 468 80 467C106.7 466 133.3 465 160 460.7C186.7 456.3 213.3 448.7 240 444.7C266.7 440.7 293.3 440.3 320 444.3C346.7 448.3 373.3 456.7 400 458.8C426.7 461 453.3 457 480 453C506.7 449 533.3 445 560 447C586.7 449 613.3 457 640 457C666.7 457 693.3 449 720 449.7C746.7 450.3 773.3 459.7 800 461.5C826.7 463.3 853.3 457.7 880 453C906.7 448.3 933.3 444.7 946.7 442.8L960 441L960 541L946.7 541C933.3 541 906.7 541 880 541C853.3 541 826.7 541 800 541C773.3 541 746.7 541 720 541C693.3 541 666.7 541 640 541C613.3 541 586.7 541 560 541C533.3 541 506.7 541 480 541C453.3 541 426.7 541 400 541C373.3 541 346.7 541 320 541C293.3 541 266.7 541 240 541C213.3 541 186.7 541 160 541C133.3 541 106.7 541 80 541C53.3 541 26.7 541 13.3 541L0 541Z" fill="#305e72"></path><path d="M0 477L13.3 475.7C26.7 474.3 53.3 471.7 80 472.3C106.7 473 133.3 477 160 477C186.7 477 213.3 473 240 472.5C266.7 472 293.3 475 320 478.7C346.7 482.3 373.3 486.7 400 483.8C426.7 481 453.3 471 480 467.2C506.7 463.3 533.3 465.7 560 471C586.7 476.3 613.3 484.7 640 486.5C666.7 488.3 693.3 483.7 720 480.2C746.7 476.7 773.3 474.3 800 471.5C826.7 468.7 853.3 465.3 880 467.3C906.7 469.3 933.3 476.7 946.7 480.3L960 484L960 541L946.7 541C933.3 541 906.7 541 880 541C853.3 541 826.7 541 800 541C773.3 541 746.7 541 720 541C693.3 541 666.7 541 640 541C613.3 541 586.7 541 560 541C533.3 541 506.7 541 480 541C453.3 541 426.7 541 400 541C373.3 541 346.7 541 320 541C293.3 541 266.7 541 240 541C213.3 541 186.7 541 160 541C133.3 541 106.7 541 80 541C53.3 541 26.7 541 13.3 541L0 541Z" fill="#476c77"></path><path d="M0 492L13.3 492.3C26.7 492.7 53.3 493.3 80 493.8C106.7 494.3 133.3 494.7 160 493.2C186.7 491.7 213.3 488.3 240 487.8C266.7 487.3 293.3 489.7 320 493.2C346.7 496.7 373.3 501.3 400 501.2C426.7 501 453.3 496 480 492.7C506.7 489.3 533.3 487.7 560 490.8C586.7 494 613.3 502 640 503.5C666.7 505 693.3 500 720 498.5C746.7 497 773.3 499 800 501.5C826.7 504 853.3 507 880 506C906.7 505 933.3 500 946.7 497.5L960 495L960 541L946.7 541C933.3 541 906.7 541 880 541C853.3 541 826.7 541 800 541C773.3 541 746.7 541 720 541C693.3 541 666.7 541 640 541C613.3 541 586.7 541 560 541C533.3 541 506.7 541 480 541C453.3 541 426.7 541 400 541C373.3 541 346.7 541 320 541C293.3 541 266.7 541 240 541C213.3 541 186.7 541 160 541C133.3 541 106.7 541 80 541C53.3 541 26.7 541 13.3 541L0 541Z" fill="#5e7a7e"></path><path d="M0 526L13.3 525.3C26.7 524.7 53.3 523.3 80 523C106.7 522.7 133.3 523.3 160 522.3C186.7 521.3 213.3 518.7 240 519.2C266.7 519.7 293.3 523.3 320 522.5C346.7 521.7 373.3 516.3 400 514.3C426.7 512.3 453.3 513.7 480 515C506.7 516.3 533.3 517.7 560 519.2C586.7 520.7 613.3 522.3 640 521.5C666.7 520.7 693.3 517.3 720 514C746.7 510.7 773.3 507.3 800 507.3C826.7 507.3 853.3 510.7 880 513.8C906.7 517 933.3 520 946.7 521.5L960 523L960 541L946.7 541C933.3 541 906.7 541 880 541C853.3 541 826.7 541 800 541C773.3 541 746.7 541 720 541C693.3 541 666.7 541 640 541C613.3 541 586.7 541 560 541C533.3 541 506.7 541 480 541C453.3 541 426.7 541 400 541C373.3 541 346.7 541 320 541C293.3 541 266.7 541 240 541C213.3 541 186.7 541 160 541C133.3 541 106.7 541 80 541C53.3 541 26.7 541 13.3 541L0 541Z" fill="#768787"></path></svg>