<svg id="visual" viewBox="0 0 960 540" width="960" height="540" xmlns="http://www.w3.org/2000/svg" xmlns:xlink="http://www.w3.org/1999/xlink" version="1.1"><rect x="0" y="0" width="960" height="540" fill="#f8faf8"></rect><path d="M0 359L13.3 363.5C26.7 368 53.3 377 80 380.2C106.7 383.3 133.3 380.7 160 381.7C186.7 382.7 213.3 387.3 240 388.3C266.7 389.3 293.3 386.7 320 391C346.7 395.3 373.3 406.7 400 403C426.7 399.3 453.3 380.7 480 373.5C506.7 366.3 533.3 370.7 560 376C586.7 381.3 613.3 387.7 640 384.7C666.7 381.7 693.3 369.3 720 371.8C746.7 374.3 773.3 391.7 800 396.3C826.7 401 853.3 393 880 393.3C906.7 393.7 933.3 402.3 946.7 406.7L960 411L960 541L946.7 541C933.3 541 906.7 541 880 541C853.3 541 826.7 541 800 541C773.3 541 746.7 541 720 541C693.3 541 666.7 541 640 541C613.3 541 586.7 541 560 541C533.3 541 506.7 541 480 541C453.3 541 426.7 541 400 541C373.3 541 346.7 541 320 541C293.3 541 266.7 541 240 541C213.3 541 186.7 541 160 541C133.3 541 106.7 541 80 541C53.3 541 26.7 541 13.3 541L0 541Z" fill="#719872"></path><path d="M0 396L13.3 395.8C26.7 395.7 53.3 395.3 80 396.3C106.7 397.3 133.3 399.7 160 398C186.7 396.3 213.3 390.7 240 396.3C266.7 402 293.3 419 320 419.8C346.7 420.7 373.3 405.3 400 404.8C426.7 404.3 453.3 418.7 480 418.5C506.7 418.3 533.3 403.7 560 398.8C586.7 394 613.3 399 640 404.3C666.7 409.7 693.3 415.3 720 411C746.7 406.7 773.3 392.3 800 393.2C826.7 394 853.3 410 880 418.7C906.7 427.3 933.3 428.7 946.7 429.3L960 430L960 541L946.7 541C933.3 541 906.7 541 880 541C853.3 541 826.7 541 800 541C773.3 541 746.7 541 720 541C693.3 541 666.7 541 640 541C613.3 541 586.7 541 560 541C533.3 541 506.7 541 480 541C453.3 541 426.7 541 400 541C373.3 541 346.7 541 320 541C293.3 541 266.7 541 240 541C213.3 541 186.7 541 160 541C133.3 541 106.7 541 80 541C53.3 541 26.7 541 13.3 541L0 541Z" fill="#51856c"></path><path d="M0 398L13.3 398C26.7 398 53.3 398 80 398.2C106.7 398.3 133.3 398.7 160 404.3C186.7 410 213.3 421 240 421.8C266.7 422.7 293.3 413.3 320 407.8C346.7 402.3 373.3 400.7 400 403.8C426.7 407 453.3 415 480 422.3C506.7 429.7 533.3 436.3 560 437.2C586.7 438 613.3 433 640 433.8C666.7 434.7 693.3 441.3 720 442.5C746.7 443.7 773.3 439.3 800 431C826.7 422.7 853.3 410.3 880 404.7C906.7 399 933.3 400 946.7 400.5L960 401L960 541L946.7 541C933.3 541 906.7 541 880 541C853.3 541 826.7 541 800 541C773.3 541 746.7 541 720 541C693.3 541 666.7 541 640 541C613.3 541 586.7 541 560 541C533.3 541 506.7 541 480 541C453.3 541 426.7 541 400 541C373.3 541 346.7 541 320 541C293.3 541 266.7 541 240 541C213.3 541 186.7 541 160 541C133.3 541 106.7 541 80 541C53.3 541 26.7 541 13.3 541L0 541Z" fill="#357166"></path><path d="M0 463L13.3 462.5C26.7 462 53.3 461 80 457C106.7 453 133.3 446 160 441.2C186.7 436.3 213.3 433.7 240 435.2C266.7 436.7 293.3 442.3 320 443.2C346.7 444 373.3 440 400 437.3C426.7 434.7 453.3 433.3 480 432.3C506.7 431.3 533.3 430.7 560 434C586.7 437.3 613.3 444.7 640 448.2C666.7 451.7 693.3 451.3 720 452.3C746.7 453.3 773.3 455.7 800 452.3C826.7 449 853.3 440 880 441.2C906.7 442.3 933.3 453.7 946.7 459.3L960 465L960 541L946.7 541C933.3 541 906.7 541 880 541C853.3 541 826.7 541 800 541C773.3 541 746.7 541 720 541C693.3 541 666.7 541 640 541C613.3 541 586.7 541 560 541C533.3 541 506.7 541 480 541C453.3 541 426.7 541 400 541C373.3 541 346.7 541 320 541C293.3 541 266.7 541 240 541C213.3 541 186.7 541 160 541C133.3 541 106.7 541 80 541C53.3 541 26.7 541 13.3 541L0 541Z" fill="#1c5d5d"></path><path d="M0 453L13.3 456.5C26.7 460 53.3 467 80 471C106.7 475 133.3 476 160 476.3C186.7 476.7 213.3 476.3 240 470.7C266.7 465 293.3 454 320 453.2C346.7 452.3 373.3 461.7 400 465.2C426.7 468.7 453.3 466.3 480 466.2C506.7 466 533.3 468 560 471C586.7 474 613.3 478 640 473.5C666.7 469 693.3 456 720 455.3C746.7 454.7 773.3 466.3 800 472.7C826.7 479 853.3 480 880 480.3C906.7 480.7 933.3 480.3 946.7 480.2L960 480L960 541L946.7 541C933.3 541 906.7 541 880 541C853.3 541 826.7 541 800 541C773.3 541 746.7 541 720 541C693.3 541 666.7 541 640 541C613.3 541 586.7 541 560 541C533.3 541 506.7 541 480 541C453.3 541 426.7 541 400 541C373.3 541 346.7 541 320 541C293.3 541 266.7 541 240 541C213.3 541 186.7 541 160 541C133.3 541 106.7 541 80 541C53.3 541 26.7 541 13.3 541L0 541Z" fill="#074952"></path><path d="M0 491L13.3 489.8C26.7 488.7 53.3 486.3 80 483.2C106.7 480 133.3 476 160 477.3C186.7 478.7 213.3 485.3 240 485.2C266.7 485 293.3 478 320 478.3C346.7 478.7 373.3 486.3 400 489.3C426.7 492.3 453.3 490.7 480 488C506.7 485.3 533.3 481.7 560 479.3C586.7 477 613.3 476 640 474.7C666.7 473.3 693.3 471.7 720 475.3C746.7 479 773.3 488 800 488.3C826.7 488.7 853.3 480.3 880 479C906.7 477.7 933.3 483.3 946.7 486.2L960 489L960 541L946.7 541C933.3 541 906.7 541 880 541C853.3 541 826.7 541 800 541C773.3 541 746.7 541 720 541C693.3 541 666.7 541 640 541C613.3 541 586.7 541 560 541C533.3 541 506.7 541 480 541C453.3 541 426.7 541 400 541C373.3 541 346.7 541 320 541C293.3 541 266.7 541 240 541C213.3 541 186.7 541 160 541C133.3 541 106.7 541 80 541C53.3 541 26.7 541 13.3 541L0 541Z" fill="#003644"></path><path d="M0 510L13.3 510C26.7 510 53.3 510 80 510.3C106.7 510.7 133.3 511.3 160 509.3C186.7 507.3 213.3 502.7 240 500.2C266.7 497.7 293.3 497.3 320 495.5C346.7 493.7 373.3 490.3 400 488.2C426.7 486 453.3 485 480 487C506.7 489 533.3 494 560 498.3C586.7 502.7 613.3 506.3 640 504C666.7 501.7 693.3 493.3 720 491.3C746.7 489.3 773.3 493.7 800 494C826.7 494.3 853.3 490.7 880 490C906.7 489.3 933.3 491.7 946.7 492.8L960 494L960 541L946.7 541C933.3 541 906.7 541 880 541C853.3 541 826.7 541 800 541C773.3 541 746.7 541 720 541C693.3 541 666.7 541 640 541C613.3 541 586.7 541 560 541C533.3 541 506.7 541 480 541C453.3 541 426.7 541 400 541C373.3 541 346.7 541 320 541C293.3 541 266.7 541 240 541C213.3 541 186.7 541 160 541C133.3 541 106.7 541 80 541C53.3 541 26.7 541 13.3 541L0 541Z" fill="#012334"></path><path d="M0 512L13.3 510.7C26.7 509.3 53.3 506.7 80 505.2C106.7 503.7 133.3 503.3 160 505.3C186.7 507.3 213.3 511.7 240 514.7C266.7 517.7 293.3 519.3 320 520.5C346.7 521.7 373.3 522.3 400 521.3C426.7 520.3 453.3 517.7 480 517.7C506.7 517.7 533.3 520.3 560 520.7C586.7 521 613.3 519 640 517C666.7 515 693.3 513 720 511C746.7 509 773.3 507 800 509.2C826.7 511.3 853.3 517.7 880 521.3C906.7 525 933.3 526 946.7 526.5L960 527L960 541L946.7 541C933.3 541 906.7 541 880 541C853.3 541 826.7 541 800 541C773.3 541 746.7 541 720 541C693.3 541 666.7 541 640 541C613.3 541 586.7 541 560 541C533.3 541 506.7 541 480 541C453.3 541 426.7 541 400 541C373.3 541 346.7 541 320 541C293.3 541 266.7 541 240 541C213.3 541 186.7 541 160 541C133.3 541 106.7 541 80 541C53.3 541 26.7 541 13.3 541L0 541Z" fill="#001122"></path></svg>